<svg xmlns="http://www.w3.org/2000/svg" viewBox="0 0 48 48" width="48" height="48"><path d="M 8 7 C 5.243 7 3 9.243 3 12 L 3 31 C 3 33.757 5.243 36 8 36 L 35 36 C 37.757 36 40 33.757 40 31 L 40 12 C 40 9.243 37.757 7 35 7 L 8 7 z M 42 12.423828 L 42 31 C 42 34.866 38.866 38 35 38 L 8.4238281 38 C 9.1978281 39.763 10.955 41 13 41 L 35 41 C 40.523 41 45 36.523 45 31 L 45 17 C 45 14.955 43.763 13.197828 42 12.423828 z M 18.494141 16 C 18.752516 15.999 19.011641 16.064266 19.244141 16.197266 L 26.244141 20.197266 C 26.711141 20.465266 27 20.962 27 21.5 C 27 22.038 26.711141 22.534734 26.244141 22.802734 L 19.244141 26.802734 C 19.014141 26.934734 18.757 27 18.5 27 C 18.24 27 17.979094 26.933828 17.746094 26.798828 C 17.284094 26.529828 17 26.035 17 25.5 L 17 17.5 C 17 16.965 17.284094 16.470172 17.746094 16.201172 C 17.977094 16.067172 18.235766 16.001 18.494141 16 z" fill="#fff"/></svg>