<svg width="1091" height="338" viewBox="0 0 1091 338" fill="none" xmlns="http://www.w3.org/2000/svg">
<path d="M1035.13 71.9146C1006.01 71.9146 977.138 82.5532 951.576 99.3387C936.901 94.8468 922.463 91.3006 909.445 91.3006C860.213 91.3006 861.87 136.456 879.148 136.456C883.409 131.255 892.876 124.399 915.599 124.399C917.019 124.399 918.676 124.635 920.332 124.635C887.196 156.551 864.237 198.397 861.16 235.987C857.372 278.305 876.308 314.24 919.149 314.24C990.393 314.24 998.914 244.025 979.269 244.025C971.695 255.846 957.73 261.283 939.504 261.283C921.989 261.283 908.261 250.881 910.155 226.294C912.995 195.56 932.64 160.097 958.676 134.328C945.422 127.945 927.67 124.872 927.67 124.872C937.848 125.344 948.025 126.763 958.44 128.181C962.937 128.891 967.434 129.6 971.931 130.309C992.05 133.383 1011.93 136.692 1030.39 136.692C1086.73 136.692 1090.04 71.9146 1035.13 71.9146ZM1027.55 116.597C1015.01 116.597 1002.23 114.233 989.446 110.687C1003.17 102.885 1017.61 98.1567 1031.34 98.1567C1056.67 97.9202 1066.61 116.597 1027.55 116.597Z" fill="white"/>
<path d="M841.316 201.116C828.062 225.23 821.197 238.942 811.967 238.942C807.469 238.942 803.446 236.814 803.446 227.83C803.446 209.39 820.487 171.564 820.487 167.308C820.487 163.289 818.594 160.925 814.333 160.925C804.156 160.925 773.149 218.847 773.149 246.744C773.149 258.564 777.173 280.787 793.741 280.787C821.198 280.787 837.529 229.485 849.127 204.662C852.441 197.333 845.813 193.077 841.316 201.116ZM822.144 150.05C834.452 150.05 884.394 92.1281 843.683 92.1281C823.564 92.1281 809.836 150.05 822.144 150.05Z" fill="white"/>
<path d="M720.737 230.313C720.737 241.188 710.086 257.028 682.393 257.028C654.7 257.028 627.954 240.242 627.954 214.946C627.954 209.508 629.137 205.016 631.031 201.234C626.534 195.087 592.213 197.688 592.213 238.115C592.213 271.213 624.877 291.072 667.008 291.072C717.897 291.072 749.613 259.155 749.613 224.639C749.613 185.63 699.908 169.318 699.908 140.475C699.908 102.176 741.329 71.2053 758.134 71.2053C770.205 71.2053 771.862 80.4255 771.862 91.7735C771.862 130.309 744.643 154.66 740.619 156.315C740.619 156.315 750.087 167.19 763.578 167.19C783.933 167.19 804.052 143.785 804.052 113.524C804.052 83.0261 782.513 51.3464 749.376 51.3464C705.115 51.3464 651.15 81.844 651.15 138.347C651.15 184.448 720.737 211.163 720.737 230.313Z" fill="white"/>
<path d="M608.752 295.534C584.136 295.534 568.515 281.349 568.515 259.835C568.515 210.424 605.912 174.489 605.912 138.554C605.912 128.861 599.284 120.114 589.58 120.114C577.035 120.114 569.698 129.098 569.698 129.098C571.118 130.28 571.828 132.171 571.828 134.535C571.828 136.426 571.592 138.554 571.355 140.445C569.698 150.139 563.307 164.087 555.97 179.927C537.035 211.843 506.975 241.395 497.744 241.395C468.394 241.395 538.928 163.378 538.928 114.913C538.928 93.6353 529.224 57.2273 491.826 57.2273C454.193 57.2273 444.488 88.4341 444.488 88.4341C448.039 87.4885 452.062 87.0156 457.033 87.0156C479.519 87.0156 493.72 100.018 493.72 119.877C493.72 156.049 453.956 208.06 453.956 236.667C453.956 256.525 465.554 263.145 474.311 263.145C493.72 263.145 516.916 246.123 536.798 223.191C530.407 239.976 525.91 256.762 525.91 271.656C525.91 281.822 529.934 328.159 570.645 328.159C611.829 328.159 622.48 293.879 622.48 293.879C618.693 294.825 614.196 295.534 608.752 295.534Z" fill="white"/>
<path d="M320.495 127.472C321.679 121.089 322.389 114.706 322.389 108.323C322.389 98.8659 318.602 56.3112 281.204 56.3112C243.57 56.3112 233.866 87.7544 233.866 87.7544C237.416 86.8087 241.44 86.3359 246.411 86.3359C268.896 86.3359 279.547 98.3931 279.547 118.488C279.547 149.459 246.411 198.87 246.411 222.984C246.411 244.734 259.192 251.827 268.896 251.827C278.364 251.827 284.518 246.862 284.518 244.971C284.518 242.843 281.914 241.424 281.914 231.968C281.914 227.003 282.624 222.038 283.808 216.837C295.406 175.464 346.295 110.687 359.549 110.687C379.668 110.687 312.448 194.141 312.448 244.025C312.448 265.539 324.756 275.468 335.407 275.468C345.348 275.468 350.555 270.976 350.555 268.849C350.555 266.484 347.951 265.775 347.951 257.501C347.951 255.609 348.188 253.482 348.188 251.59C353.395 203.834 403.811 144.258 417.775 144.258C437.894 144.258 380.851 211.872 380.851 263.884C380.851 274.286 384.875 320.623 425.823 320.623C467.007 320.623 477.658 286.343 477.658 286.343C473.871 287.289 469.374 287.998 463.93 287.998C439.314 287.998 423.693 273.813 423.693 252.063C423.693 202.652 457.54 180.666 457.54 138.82C457.54 129.127 450.912 122.507 441.208 122.507C418.959 122.507 397.42 140.002 381.325 158.206C391.503 138.347 399.55 120.143 399.55 105.249C399.55 95.3197 392.923 88.7 382.982 88.7C359.549 88.7 336.827 108.323 320.495 127.472Z" fill="white"/>
<path d="M261.992 128.103C262.959 123.475 261.245 117.804 252.903 116.064C228.807 111.037 213.646 136.132 209.209 144.626C208.361 146.381 198.468 157.842 194.44 162.074C190.363 166.537 196.395 172.384 201.129 167.092C202.49 165.202 202.49 165.202 202.49 165.202C202.49 165.202 207.869 204.243 183.309 199.119C165.005 195.301 176.346 182.693 173.102 182.016C156.42 178.536 130.819 230.435 175.536 239.762C198.706 244.596 222.762 232.466 227.793 208.398C232.004 188.264 226.431 172.128 228.947 160.094C228.947 160.094 230.833 151.069 235.288 145.96C235.288 145.96 233.48 151.138 233.11 156.374C240.71 152.404 259.137 141.757 261.992 128.103Z" fill="white"/>
<path d="M250.468 0.0922852C64.6283 0.0922852 0.83252 80.4366 0.83252 123.933C0.83252 130.86 4.99312 133.907 6.93473 133.907C41.329 133.907 64.3509 168.815 70.4531 198.182C68.2341 208.71 66.8473 219.515 66.8473 230.32C66.8473 255.532 79.6064 287.946 116.22 287.946C152.555 287.946 159.49 261.073 159.49 261.073C159.49 261.073 127.869 253.038 127.869 209.819C127.869 143.327 176.41 88.194 208.307 59.1038C197.767 53.8399 185.008 51.3464 175.577 51.0694C141.461 73.7874 104.293 112.297 83.2123 158.564C70.1757 140.833 44.9348 126.15 20.8034 122.825C48.2633 98.4448 118.161 41.9267 261.84 41.9267C358.366 41.9267 416.984 72.9562 419.758 72.9562C422.531 72.9562 421.607 60.212 421.607 56.3333C416.984 33.2459 393.315 0.0922852 250.468 0.0922852Z" fill="white"/>
</svg>
