<svg width="590" height="183" viewBox="0 0 590 183" fill="none" xmlns="http://www.w3.org/2000/svg">
<path d="M559.785 38.936C544.041 38.936 528.425 44.696 514.601 53.784C506.665 51.352 498.857 49.432 491.817 49.432C465.193 49.432 466.089 73.88 475.433 73.88C477.737 71.064 482.857 67.352 495.145 67.352C495.913 67.352 496.809 67.48 497.705 67.48C479.785 84.76 467.369 107.416 465.705 127.768C463.657 150.68 473.897 170.136 497.065 170.136C535.593 170.136 540.201 132.12 529.577 132.12C525.481 138.52 517.929 141.464 508.073 141.464C498.601 141.464 491.177 135.832 492.201 122.52C493.737 105.88 504.361 86.68 518.441 72.728C511.273 69.272 501.673 67.608 501.673 67.608C507.177 67.864 512.681 68.632 518.313 69.4C520.745 69.784 523.177 70.168 525.609 70.552C536.489 72.216 547.241 74.008 557.225 74.008C587.689 74.008 589.481 38.936 559.785 38.936ZM555.689 63.128C548.905 63.128 541.993 61.848 535.081 59.928C542.505 55.704 550.313 53.144 557.737 53.144C571.433 53.016 576.809 63.128 555.689 63.128Z" fill="url(#paint0_linear_12_171)"/>
<path d="M454.974 108.888C447.806 121.944 444.094 129.368 439.102 129.368C436.67 129.368 434.494 128.216 434.494 123.352C434.494 113.368 443.71 92.888 443.71 90.584C443.71 88.408 442.686 87.128 440.382 87.128C434.878 87.128 418.11 118.488 418.11 133.592C418.11 139.992 420.286 152.024 429.246 152.024C444.094 152.024 452.926 124.248 459.198 110.808C460.99 106.84 457.406 104.536 454.974 108.888ZM444.606 81.24C451.262 81.24 478.27 49.88 456.254 49.88C445.374 49.88 437.95 81.24 444.606 81.24Z" fill="url(#paint1_linear_12_171)"/>
<path d="M389.766 124.696C389.766 130.584 384.006 139.16 369.03 139.16C354.054 139.16 339.59 130.072 339.59 116.376C339.59 113.432 340.23 111 341.254 108.952C338.822 105.624 320.262 107.032 320.262 128.92C320.262 146.84 337.926 157.592 360.71 157.592C388.23 157.592 405.382 140.312 405.382 121.624C405.382 100.504 378.502 91.672 378.502 76.056C378.502 55.32 400.902 38.552 409.99 38.552C416.518 38.552 417.414 43.544 417.414 49.688C417.414 70.552 402.694 83.736 400.518 84.632C400.518 84.632 405.638 90.52 412.934 90.52C423.942 90.52 434.822 77.848 434.822 61.464C434.822 44.952 423.174 27.8 405.254 27.8C381.318 27.8 352.134 44.312 352.134 74.904C352.134 99.864 389.766 114.328 389.766 124.696Z" fill="url(#paint2_linear_12_171)"/>
<path d="M329.206 160.008C315.894 160.008 307.446 152.328 307.446 140.68C307.446 113.928 327.67 94.472 327.67 75.016C327.67 69.768 324.086 65.032 318.838 65.032C312.054 65.032 308.086 69.896 308.086 69.896C308.854 70.536 309.238 71.56 309.238 72.84C309.238 73.864 309.11 75.016 308.982 76.04C308.086 81.288 304.63 88.84 300.662 97.416C290.422 114.696 274.166 130.696 269.174 130.696C253.302 130.696 291.446 88.456 291.446 62.216C291.446 50.696 286.198 30.984 265.974 30.984C245.622 30.984 240.374 47.88 240.374 47.88C242.294 47.368 244.47 47.112 247.158 47.112C259.318 47.112 266.998 54.152 266.998 64.904C266.998 84.488 245.494 112.648 245.494 128.136C245.494 138.888 251.766 142.472 256.502 142.472C266.998 142.472 279.542 133.256 290.294 120.84C286.838 129.928 284.406 139.016 284.406 147.08C284.406 152.584 286.582 177.672 308.598 177.672C330.87 177.672 336.63 159.112 336.63 159.112C334.582 159.624 332.15 160.008 329.206 160.008Z" fill="url(#paint3_linear_12_171)"/>
<path d="M173.32 69.016C173.96 65.56 174.344 62.104 174.344 58.648C174.344 53.528 172.296 30.488 152.072 30.488C131.72 30.488 126.472 47.512 126.472 47.512C128.392 47 130.568 46.744 133.256 46.744C145.416 46.744 151.176 53.272 151.176 64.152C151.176 80.92 133.256 107.672 133.256 120.728C133.256 132.504 140.168 136.344 145.416 136.344C150.536 136.344 153.864 133.656 153.864 132.632C153.864 131.48 152.456 130.712 152.456 125.592C152.456 122.904 152.84 120.216 153.48 117.4C159.752 95 187.272 59.928 194.44 59.928C205.32 59.928 168.968 105.112 168.968 132.12C168.968 143.768 175.624 149.144 181.384 149.144C186.76 149.144 189.576 146.712 189.576 145.56C189.576 144.28 188.168 143.896 188.168 139.416C188.168 138.392 188.296 137.24 188.296 136.216C191.112 110.36 218.376 78.104 225.928 78.104C236.808 78.104 205.96 114.712 205.96 142.872C205.96 148.504 208.136 173.592 230.28 173.592C252.552 173.592 258.312 155.032 258.312 155.032C256.264 155.544 253.832 155.928 250.888 155.928C237.576 155.928 229.128 148.248 229.128 136.472C229.128 109.72 247.432 97.816 247.432 75.16C247.432 69.912 243.848 66.328 238.6 66.328C226.568 66.328 214.92 75.8 206.216 85.656C211.72 74.904 216.072 65.048 216.072 56.984C216.072 51.608 212.488 48.024 207.112 48.024C194.44 48.024 182.152 58.648 173.32 69.016Z" fill="url(#paint4_linear_12_171)"/>
<path d="M141.682 69.3577C142.205 66.8517 141.278 63.7812 136.767 62.8392C123.736 60.1178 115.537 73.7047 113.138 78.3034C112.679 79.2534 107.329 85.4589 105.151 87.7499C102.946 90.1663 106.208 93.3319 108.768 90.4667C109.504 89.4437 109.504 89.4437 109.504 89.4437C109.504 89.4437 112.413 110.581 99.1312 107.807C89.2328 105.74 95.3658 98.9134 93.6117 98.547C84.5903 96.663 70.7456 124.762 94.9279 129.812C107.458 132.429 120.467 125.862 123.188 112.831C125.465 101.93 122.451 93.1937 123.812 86.6782C123.812 86.6782 124.832 81.7917 127.241 79.0256C127.241 79.0256 126.263 81.8289 126.063 84.6639C130.173 82.5148 140.138 76.7502 141.682 69.3577Z" fill="url(#paint5_linear_12_171)"/>
<path d="M135.45 0.0499878C34.9502 0.0499878 0.450195 43.55 0.450195 67.1C0.450195 70.85 2.7002 72.5 3.7502 72.5C22.3502 72.5 34.8002 91.4 38.1002 107.3C36.9002 113 36.1502 118.85 36.1502 124.7C36.1502 138.35 43.0502 155.9 62.8502 155.9C82.5002 155.9 86.2502 141.35 86.2502 141.35C86.2502 141.35 69.1502 137 69.1502 113.6C69.1502 77.6 95.4002 47.75 112.65 32C106.95 29.15 100.05 27.8 94.9502 27.65C76.5002 39.95 56.4002 60.8 45.0002 85.85C37.9502 76.25 24.3002 68.3 11.2502 66.5C26.1002 53.3 63.9002 22.7 141.6 22.7C193.8 22.7 225.5 39.5 227 39.5C228.5 39.5 228 32.6 228 30.5C225.5 18 212.7 0.0499878 135.45 0.0499878Z" fill="url(#paint6_linear_12_171)"/>
<defs>
<linearGradient id="paint0_linear_12_171" x1="499.379" y1="37.303" x2="484.023" y2="174.554" gradientUnits="userSpaceOnUse">
<stop stop-color="#FA85BD"/>
<stop offset="1" stop-color="#B027C6"/>
</linearGradient>
<linearGradient id="paint1_linear_12_171" x1="440.674" y1="45.303" x2="395.521" y2="167.601" gradientUnits="userSpaceOnUse">
<stop stop-color="#FA85BD"/>
<stop offset="1" stop-color="#B027C6"/>
</linearGradient>
<linearGradient id="paint2_linear_12_171" x1="385.1" y1="37.303" x2="366.879" y2="173.84" gradientUnits="userSpaceOnUse">
<stop stop-color="#FA85BD"/>
<stop offset="1" stop-color="#B027C6"/>
</linearGradient>
<linearGradient id="paint3_linear_12_171" x1="294.582" y1="43.303" x2="276.147" y2="179.782" gradientUnits="userSpaceOnUse">
<stop stop-color="#FA85BD"/>
<stop offset="1" stop-color="#B027C6"/>
</linearGradient>
<linearGradient id="paint4_linear_12_171" x1="194.578" y1="37.303" x2="181.754" y2="175.078" gradientUnits="userSpaceOnUse">
<stop stop-color="#FA85BD"/>
<stop offset="1" stop-color="#B027C6"/>
</linearGradient>
<linearGradient id="paint5_linear_12_171" x1="134.865" y1="28.9987" x2="68.2957" y2="142.689" gradientUnits="userSpaceOnUse">
<stop stop-color="#FA85BD"/>
<stop offset="1" stop-color="#B027C6"/>
</linearGradient>
<linearGradient id="paint6_linear_12_171" x1="63.9429" y1="9.13637" x2="40.9356" y2="131.849" gradientUnits="userSpaceOnUse">
<stop stop-color="#FA85BD"/>
<stop offset="1" stop-color="#B027C6"/>
</linearGradient>
</defs>
</svg>
