<svg xmlns="http://www.w3.org/2000/svg" viewBox="0 0 48 48" width="48" height="48"><path d="M 24.476562 6.9785156 A 1.50015 1.50015 0 0 0 23 8.4980469 A 1.50015 1.50015 0 0 0 23 8.5 L 23 16.498047 L 23 32.201172 A 7.5 6 0 0 0 18.5 31 A 7.5 6 0 0 0 18.5 43 A 7.5 6 0 0 0 25.986328 36.720703 A 1.50015 1.50015 0 0 0 26 36.5 L 26 18.445312 L 36.117188 21.105469 C 36.243187 21.138469 36.372 21.15625 36.5 21.15625 C 36.828 21.15625 37.150016 21.04975 37.416016 20.84375 C 37.784016 20.56175 38 20.12125 38 19.65625 L 38 14.050781 C 38 11.946781 36.57625 10.149922 34.53125 9.6699219 L 25.121094 7.1152344 A 1.50015 1.50015 0 0 0 24.476562 6.9785156 z" fill="#fff"/></svg>