<svg width="100" height="100" viewBox="0 0 100 100" fill="none" xmlns="http://www.w3.org/2000/svg">
<g clip-path="url(#clip0_156_2)">
<rect width="100" height="100" fill="#19171F"/>
<ellipse cx="49.5" cy="108.5" rx="39.5" ry="28.5" fill="url(#paint0_linear_156_2)"/>
<circle cx="50" cy="45" r="23" fill="#481550"/>
<circle cx="49.5" cy="44.5" r="5.5" fill="black"/>
<path d="M78 44.5C78 60.2401 65.2401 73 49.5 73C33.7599 73 21 60.2401 21 44.5C21 28.7599 33.7599 16 49.5 16C65.2401 16 78 28.7599 78 44.5ZM40.1468 44.5C40.1468 49.6656 44.3344 53.8532 49.5 53.8532C54.6656 53.8532 58.8532 49.6656 58.8532 44.5C58.8532 39.3344 54.6656 35.1468 49.5 35.1468C44.3344 35.1468 40.1468 39.3344 40.1468 44.5Z" fill="url(#paint1_linear_156_2)"/>
</g>
<defs>
<linearGradient id="paint0_linear_156_2" x1="49.5" y1="80" x2="50" y2="112" gradientUnits="userSpaceOnUse">
<stop stop-color="#FB60C3"/>
<stop offset="1" stop-color="#FF5959"/>
</linearGradient>
<linearGradient id="paint1_linear_156_2" x1="49.5" y1="16" x2="49.5" y2="73" gradientUnits="userSpaceOnUse">
<stop stop-color="#B027C6"/>
<stop offset="0.425" stop-color="#FF00D6"/>
<stop offset="1" stop-color="#FA85BD"/>
</linearGradient>
<clipPath id="clip0_156_2">
<rect width="100" height="100" fill="white"/>
</clipPath>
</defs>
</svg>
