<svg width="31" height="40" viewBox="0 0 31 40" fill="none" xmlns="http://www.w3.org/2000/svg">
<path d="M2.81116 22.8227C1.25674 21.2619 1.25674 18.7381 2.81115 17.1773L10.4158 9.54162C12.9333 7.01384 17.25 8.79671 17.25 12.3643L17.25 27.6357C17.25 31.2033 12.9333 32.9862 10.4158 30.4584L2.81116 22.8227Z" fill="#E3E3E3"/>
<path d="M22.1724 30.4073C22.3393 31.057 23.0107 31.4483 23.6331 31.1982C25.6009 30.4074 27.3304 29.0637 28.6236 27.3051C30.1647 25.2094 31 22.6416 31 20C31 17.3584 30.1647 14.7906 28.6236 12.6949C27.3304 10.9363 25.6009 9.59258 23.6331 8.80179C23.0107 8.55168 22.3393 8.943 22.1724 9.59267V9.59267C22.0106 10.2231 22.3867 10.8599 22.9852 11.1155C24.4854 11.7563 25.8036 12.8025 26.7988 14.1559C28.0317 15.8325 28.7 17.8867 28.7 20C28.7 22.1133 28.0317 24.1675 26.7988 25.8441C25.8036 27.1975 24.4854 28.2437 22.9852 28.8845C22.3867 29.1401 22.0106 29.7769 22.1724 30.4073V30.4073Z" fill="#E3E3E3"/>
<path d="M21.2062 25.4421C21.7965 25.7564 22.5328 25.562 22.9509 25.0401C24.2135 23.4643 26 21.7449 26 20C26 18.2551 24.2135 16.5357 22.9509 14.9599C22.5328 14.438 21.7965 14.2436 21.2062 14.5579V14.5579C20.5542 14.905 20.3484 15.7232 20.8216 16.2903C21.799 17.4614 22.9967 18.7222 22.9967 20C22.9967 21.2778 21.799 22.5386 20.8216 23.7097C20.3484 24.2768 20.5542 25.095 21.2062 25.4421V25.4421Z" fill="#E3E3E3"/>
</svg>
