<svg width="26" height="40" viewBox="0 0 26 40" fill="none" xmlns="http://www.w3.org/2000/svg">
<path d="M2.81116 22.8227C1.25675 21.2619 1.25675 18.7381 2.81116 17.1773L10.4158 9.54162C12.9333 7.01384 17.25 8.79671 17.25 12.3643L17.25 27.6357C17.25 31.2033 12.9333 32.9862 10.4158 30.4584L2.81116 22.8227Z" fill="#E3E3E3"/>
<path d="M21.2062 25.4421C21.7965 25.7564 22.5328 25.562 22.9509 25.0401C24.2135 23.4643 26 21.7449 26 20C26 18.2551 24.2135 16.5357 22.9509 14.9599C22.5328 14.438 21.7965 14.2436 21.2062 14.5579V14.5579C20.5542 14.905 20.3484 15.7232 20.8216 16.2903C21.799 17.4614 22.9967 18.7222 22.9967 20C22.9967 21.2778 21.799 22.5386 20.8216 23.7097C20.3484 24.2768 20.5542 25.095 21.2062 25.4421V25.4421Z" fill="#E3E3E3"/>
</svg>
